<svg width="20" height="16" viewBox="0 0 20 16" fill="none" xmlns="http://www.w3.org/2000/svg">
<path d="M17.8824 0.88129L17.1465 0.145348C16.9385 -0.0626432 16.5545 -0.0306342 16.3145 0.257311L13.7543 2.80128C12.6022 2.30533 11.3384 2.06533 10.0103 2.06533C6.05819 2.08127 2.63441 4.38524 0.986297 7.69745C0.890269 7.90544 0.890269 8.16137 0.986297 8.33736C1.75423 9.90538 2.9063 11.2014 4.3463 12.1774L2.25031 14.3053C2.01031 14.5453 1.9783 14.9293 2.13835 15.1373L2.87429 15.8733C3.08228 16.0812 3.46627 16.0492 3.70627 15.7613L17.7542 1.7134C18.0582 1.47354 18.0902 1.08958 17.8822 0.881565L17.8824 0.88129ZM10.8583 5.71318C10.5863 5.64916 10.2983 5.5692 10.0263 5.5692C8.66628 5.5692 7.57839 6.65723 7.57839 8.01714C7.57839 8.28914 7.64241 8.57709 7.72236 8.84911L6.65025 9.90515C6.33029 9.34519 6.1543 8.72109 6.1543 8.01717C6.1543 5.88919 7.86633 4.17717 9.99431 4.17717C10.6984 4.17717 11.3223 4.35315 11.8823 4.67311L10.8583 5.71318Z" fill="#111111"/>
<path d="M19.0344 7.69739C18.4745 6.57735 17.7384 5.56941 16.8265 4.75338L13.8505 7.69739V8.01735C13.8505 10.1453 12.1384 11.8573 10.0104 11.8573H9.69049L7.80251 13.7453C8.50656 13.8893 9.24251 13.9853 9.96251 13.9853C13.9146 13.9853 17.3384 11.6814 18.9865 8.35321C19.1305 8.12914 19.1305 7.90523 19.0345 7.69722L19.0344 7.69739Z" fill="#111111"/>
</svg>
